<svg width="31" height="31" viewBox="0 0 31 31" fill="none" xmlns="http://www.w3.org/2000/svg">
<g clip-path="url(#clip0_30_342)">
<path opacity="0.962" fill-rule="evenodd" clip-rule="evenodd" d="M6.02441 -0.0302734C6.73081 -0.0302734 7.43715 -0.0302734 8.14355 -0.0302734C9.65874 0.168673 11.0917 0.642959 12.4424 1.39258C13.0199 1.76949 13.5951 2.14286 14.168 2.5127C14.2665 2.50512 14.3573 2.47485 14.4404 2.42188C16.131 1.07202 18.0483 0.254635 20.1924 -0.0302734C20.8988 -0.0302734 21.6051 -0.0302734 22.3115 -0.0302734C23.8685 0.0942557 24.6153 0.94191 24.5518 2.5127C25.3823 2.48811 26.2098 2.51838 27.0342 2.60352C27.7947 2.87955 28.2488 3.41438 28.3965 4.20801C28.4369 6.95278 28.4369 9.69761 28.3965 12.4424C28.031 13.0379 27.6072 13.0783 27.125 12.5635C27.1238 9.79576 27.0834 7.03076 27.0039 4.26855C26.8908 4.02512 26.6991 3.89394 26.4287 3.875C25.8034 3.84474 25.1778 3.83465 24.5518 3.84473C24.5619 6.26666 24.5518 8.68854 24.5215 11.1104C24.3129 11.5984 23.9597 11.7295 23.4619 11.5039C23.3681 11.4304 23.2975 11.3396 23.25 11.2314C23.2298 8.16372 23.2096 5.09603 23.1895 2.02832C23.139 1.65495 22.9271 1.44303 22.5537 1.39258C19.6449 1.07062 17.0918 1.86782 14.8945 3.78418C14.8744 7.51792 14.8541 11.2516 14.834 14.9854C14.6775 15.4436 14.3647 15.595 13.8955 15.4395C13.7441 15.3688 13.6332 15.2578 13.5625 15.1064C13.5423 11.3525 13.5221 7.59863 13.502 3.84473C11.306 1.86152 8.73274 1.04414 5.78223 1.39258C5.48326 1.40907 5.29153 1.56043 5.20703 1.84668C5.16666 7.03355 5.16666 12.2204 5.20703 17.4072C5.27767 17.5586 5.38867 17.6696 5.54004 17.7402C7.62297 17.5505 9.62102 17.8734 11.5342 18.709C12.0393 18.9527 12.1704 19.3261 11.9277 19.8291C11.7986 19.9996 11.6271 20.0803 11.4131 20.0713C10.8035 19.8778 10.198 19.6659 9.59668 19.4355C8.35317 19.11 7.09179 19.0192 5.8125 19.1631C4.91869 19.1303 4.29305 18.7064 3.93555 17.8916C3.84527 13.2128 3.81499 8.53051 3.84473 3.84473C3.19858 3.83465 2.55275 3.84474 1.90723 3.875C1.60826 3.89149 1.41653 4.04285 1.33203 4.3291C1.29166 9.61684 1.29166 14.9046 1.33203 20.1924C1.42812 20.3895 1.57949 20.5207 1.78613 20.5859C4.91439 20.6061 8.04262 20.6263 11.1709 20.6465C11.5724 20.834 11.7037 21.1468 11.5645 21.585C11.4887 21.7594 11.3576 21.8704 11.1709 21.918C7.94175 21.9584 4.71256 21.9584 1.4834 21.918C0.729856 21.699 0.225302 21.2247 -0.0302734 20.4951C-0.0302734 15.0055 -0.0302734 9.51597 -0.0302734 4.02637C0.219277 3.18199 0.784379 2.68752 1.66504 2.54297C2.39132 2.5127 3.11789 2.50261 3.84473 2.5127C3.72761 0.93488 4.45417 0.0872226 6.02441 -0.0302734Z" fill="white"/>
<path opacity="0.947" fill-rule="evenodd" clip-rule="evenodd" d="M30.9697 21.5849C30.9697 22.2509 30.9697 22.9169 30.9697 23.5829C30.4283 26.8548 28.6321 29.1455 25.5811 30.455C24.9238 30.693 24.2577 30.8646 23.583 30.9697C22.917 30.9697 22.251 30.9697 21.585 30.9697C18.3191 30.4594 16.0283 28.6834 14.7129 25.6415C13.474 21.8522 14.3317 18.6331 17.2861 15.9843C19.9563 14.0198 22.8424 13.6363 25.9443 14.8339C28.8048 16.2069 30.4799 18.4572 30.9697 21.5849ZM22.4932 15.4697C25.5398 15.6047 27.7296 17.0377 29.0625 19.7685C30.1089 22.4786 29.7254 24.961 27.9121 27.2158C25.7158 29.5081 23.1022 30.164 20.0713 29.1835C17.1767 27.9359 15.6631 25.7361 15.5303 22.5839C15.6435 19.5911 17.0361 17.4316 19.708 16.1054C20.607 15.726 21.5354 15.5141 22.4932 15.4697Z" fill="white"/>
<path opacity="0.901" fill-rule="evenodd" clip-rule="evenodd" d="M22.3721 18.0127C23.0305 18.0149 23.303 18.3379 23.1895 18.9814C23.1188 19.1328 23.0078 19.2438 22.8564 19.3145C22.2041 19.4289 21.8913 19.1565 21.918 18.4971C21.9999 18.264 22.1513 18.1025 22.3721 18.0127Z" fill="white"/>
<path opacity="0.958" fill-rule="evenodd" clip-rule="evenodd" d="M22.3115 20.6161C22.689 20.5479 22.9817 20.669 23.1895 20.9794C23.2298 22.8967 23.2298 24.814 23.1895 26.7313C23.0641 27.001 22.8521 27.122 22.5537 27.0946C22.2309 27.0853 22.019 26.9238 21.918 26.6102C21.8776 24.7737 21.8776 22.937 21.918 21.1005C21.997 20.8909 22.1281 20.7294 22.3115 20.6161Z" fill="white"/>
</g>
<defs>
<clipPath id="clip0_30_342">
<rect width="31" height="31" fill="white"/>
</clipPath>
</defs>
</svg>
