<svg width="50" height="50" viewBox="0 0 50 50" fill="none" xmlns="http://www.w3.org/2000/svg">
<path opacity="0.93" fill-rule="evenodd" clip-rule="evenodd" d="M24.1699 7.47072C28.6862 7.14777 31.9251 9.00324 33.8867 13.0371C35.0477 16.0568 34.9825 19.0516 33.6914 22.0215C32.9688 23.776 32.1063 25.4524 31.1035 27.0508C33.9177 27.5632 36.4893 28.6374 38.8184 30.2735C41.8132 33.0078 41.8132 35.7422 38.8184 38.4766C37.1761 39.7088 35.3531 40.5877 33.3496 41.1133C27.4734 42.6162 21.6466 42.4535 15.8691 40.625C13.9437 39.9479 12.2672 38.89 10.8398 37.4512C9.02849 34.8302 9.33773 32.4701 11.7676 30.3711C13.3619 29.1833 15.1197 28.3044 17.041 27.7344C17.8938 27.505 18.7402 27.2772 19.5801 27.0508C18.2125 24.8201 17.122 22.4601 16.3086 19.9707C15.3883 15.9953 16.3485 12.5611 19.1895 9.66799C20.6434 8.45244 22.3035 7.72002 24.1699 7.47072ZM24.6582 9.03322C28.9976 9.02761 31.7481 11.111 32.9102 15.2832C33.2806 16.8645 33.2154 18.427 32.7148 19.9707C31.5503 23.0487 30.0529 25.9458 28.2227 28.6621C27.3091 30.0349 26.3487 31.3696 25.3418 32.666C22.3695 28.8726 19.9444 24.7384 18.0664 20.2637C17.083 17.1412 17.5713 14.2767 19.5313 11.6699C20.9061 10.1281 22.615 9.24922 24.6582 9.03322ZM24.5605 13.3301C26.8391 13.125 28.3202 14.1016 29.0039 16.2598C29.2628 18.4284 28.3677 19.877 26.3184 20.6055C24.0509 20.9733 22.5372 20.078 21.7773 17.9199C21.4574 15.6295 22.3852 14.0996 24.5605 13.3301ZM20.3613 28.5645C20.7935 28.9416 21.1027 29.3973 21.2891 29.9317C19.9055 30.2411 18.6196 30.7782 17.4316 31.543C15.3921 33.2568 15.3596 35.0146 17.334 36.8164C18.9432 37.8412 20.701 38.4597 22.6074 38.6719C25.426 39.0377 28.1929 38.8099 30.9082 37.9883C31.8627 37.6252 32.7416 37.1369 33.5449 36.5235C35.1372 34.6347 34.9419 32.942 32.959 31.4453C31.8096 30.7406 30.5726 30.2524 29.248 29.9805C29.5924 29.5067 29.9342 29.0346 30.2734 28.5645C32.8554 28.9799 35.248 29.8751 37.4512 31.25C39.9088 33.0473 40.0716 35.0004 37.9395 37.1094C36.5345 38.1866 34.972 38.9679 33.252 39.4531C27.4698 41.0695 21.7406 40.9067 16.0645 38.9649C14.5993 38.4411 13.3135 37.6437 12.207 36.5723C10.8309 34.7724 11.0099 33.1285 12.7441 31.6406C14.1432 30.5505 15.7057 29.7693 17.4316 29.2969C18.413 29.0198 19.3896 28.7757 20.3613 28.5645ZM22.2168 31.3965C22.3141 31.3881 22.3954 31.4207 22.4609 31.4942C23.2161 32.6402 24.0462 33.7307 24.9512 34.7656C25.2895 34.8454 25.615 34.8128 25.9277 34.668C26.761 33.6035 27.5586 32.513 28.3203 31.3965C29.4555 31.6338 30.546 32.0082 31.5918 32.5196C33.4898 33.5932 33.5224 34.6999 31.6895 35.8399C28.9229 37.1161 26.0258 37.5393 22.998 37.1094C21.0891 36.9186 19.3801 36.2513 17.8711 35.1074C17.6731 34.8417 17.5267 34.5488 17.4316 34.2285C17.7293 33.3937 18.2826 32.7915 19.0918 32.4219C20.1027 31.9492 21.1444 31.6074 22.2168 31.3965Z" fill="white"/>
<path opacity="0.925" fill-rule="evenodd" clip-rule="evenodd" d="M24.8535 11.6699C28.1475 11.6931 30.0844 13.3206 30.6641 16.5527C30.7571 18.7921 29.862 20.5011 27.9785 21.6797C25.8947 22.6543 23.9091 22.4915 22.0215 21.1914C20.345 19.7103 19.7429 17.871 20.2148 15.6738C20.9321 13.3713 22.4783 12.0367 24.8535 11.6699ZM24.5605 13.3301C22.3852 14.0996 21.4574 15.6295 21.7773 17.9199C22.5372 20.078 24.0509 20.9732 26.3184 20.6055C28.3677 19.877 29.2628 18.4284 29.0039 16.2598C28.3202 14.1016 26.8391 13.125 24.5605 13.3301Z" fill="white"/>
</svg>
