<svg width="38" height="39" viewBox="0 0 38 39" fill="none" xmlns="http://www.w3.org/2000/svg">
<g clip-path="url(#clip0_30_385)">
<path fill-rule="evenodd" clip-rule="evenodd" d="M18.3691 1.05664C18.7649 1.05664 19.1608 1.05664 19.5566 1.05664C19.5566 1.65039 19.5566 2.24414 19.5566 2.83789C19.1608 2.83789 18.7649 2.83789 18.3691 2.83789C18.3691 2.24414 18.3691 1.65039 18.3691 1.05664Z" fill="white"/>
<path opacity="0.857" fill-rule="evenodd" clip-rule="evenodd" d="M12.1348 3.58011C12.2128 3.56901 12.2871 3.58138 12.3574 3.61722C12.7667 4.01414 13.1625 4.42234 13.5449 4.84183C13.2728 5.16344 12.9759 5.46031 12.6543 5.73245C12.1944 5.33445 11.7738 4.90151 11.3926 4.43362C11.6268 4.13754 11.8742 3.85304 12.1348 3.58011Z" fill="white"/>
<path opacity="0.856" fill-rule="evenodd" clip-rule="evenodd" d="M25.5684 3.58008C25.9664 3.76723 26.2881 4.05174 26.5332 4.43359C26.1519 4.90148 25.7313 5.33442 25.2715 5.73242C24.9499 5.46028 24.653 5.16341 24.3809 4.8418C24.7783 4.41971 25.1741 3.99914 25.5684 3.58008Z" fill="white"/>
<path opacity="0.933" fill-rule="evenodd" clip-rule="evenodd" d="M17.9238 4.02544C21.5369 3.77168 24.0974 5.28079 25.6055 8.55279C26.3204 10.9325 26.2214 13.2828 25.3086 15.6036C24.3613 17.8954 23.149 20.0231 21.6719 21.9864C21.636 22.0567 21.6237 22.131 21.6348 22.209C22.5422 22.3968 23.2968 22.8421 23.8984 23.545C24.5904 24.7266 24.4048 25.7533 23.3418 26.6251C22.396 27.2455 21.357 27.6166 20.2246 27.7383C18.4066 27.9841 16.6749 27.7119 15.0293 26.9219C14.384 26.5489 13.9263 26.017 13.6562 25.3262C13.4867 24.2427 13.8702 23.4139 14.8066 22.8399C15.2773 22.5551 15.7721 22.3201 16.291 22.1348C15.0907 20.5272 14.0393 18.8201 13.1367 17.0137C12.0104 14.7336 11.6146 12.3338 11.9492 9.81451C12.7667 6.6589 14.7582 4.72921 17.9238 4.02544ZM18.8887 5.21294C22.1403 5.48343 24.1071 7.2152 24.7891 10.4083C24.9609 12.4421 24.5899 14.3718 23.6758 16.1973C22.3087 18.8094 20.7378 21.2833 18.9629 23.6192C17.8211 22.0932 16.7202 20.5346 15.6602 18.9434C14.6315 17.356 13.8645 15.6489 13.3594 13.8223C12.6585 11.3896 13.0791 9.1878 14.6211 7.21685C15.7797 5.97561 17.2023 5.30764 18.8887 5.21294ZM18.2949 7.66216C20.426 7.50602 21.799 8.44614 22.4141 10.4825C22.6053 12.616 21.6776 13.989 19.6309 14.6016C17.4974 14.7929 16.1243 13.8651 15.5117 11.8184C15.3357 9.68314 16.2634 8.2977 18.2949 7.66216ZM18.8887 10.9278C19.0579 11.0124 19.2311 11.099 19.4082 11.1876C19.299 11.354 19.2248 11.5396 19.1855 11.7442C19.0371 11.6453 18.8887 11.6453 18.7402 11.7442C18.701 11.5396 18.6268 11.354 18.5176 11.1876C18.6722 11.1358 18.796 11.0492 18.8887 10.9278ZM20.7441 23.2481C21.4481 23.3962 22.0914 23.6806 22.6738 24.1016C23.0848 24.4587 23.1467 24.8669 22.8594 25.3262C22.4418 25.7146 21.9594 25.9991 21.4121 26.1797C19.6446 26.7129 17.8881 26.6634 16.1426 26.0313C14.4603 25.2149 14.4603 24.3985 16.1426 23.5821C16.4228 23.4804 16.7073 23.3939 16.9961 23.3223C17.0783 23.3286 17.1525 23.3534 17.2187 23.3965C17.6517 24.0274 18.0847 24.6583 18.5176 25.2891C18.8353 25.4456 19.1446 25.4333 19.4453 25.252C19.8798 24.5798 20.3128 23.9118 20.7441 23.2481Z" fill="white"/>
<path opacity="0.928" fill-rule="evenodd" clip-rule="evenodd" d="M18.0723 6.40049C20.5932 6.15735 22.3867 7.17168 23.4531 9.44346C24.1435 11.6931 23.5869 13.5609 21.7832 15.047C20.3713 15.9493 18.8621 16.1472 17.2559 15.6407C14.9726 14.5758 13.9706 12.7823 14.25 10.2599C14.7459 8.1931 16.02 6.90661 18.0723 6.40049ZM18.2949 7.66221C16.2634 8.29775 15.3357 9.68319 15.5117 11.8185C16.1243 13.8652 17.4974 14.7929 19.6309 14.6017C21.6776 13.9891 22.6053 12.616 22.4141 10.4825C21.799 8.44619 20.426 7.50607 18.2949 7.66221ZM18.8887 10.9278C18.796 11.0493 18.6722 11.1359 18.5176 11.1876C18.6267 11.3541 18.701 11.5396 18.7402 11.7442C18.8887 11.6453 19.0371 11.6453 19.1855 11.7442C19.2248 11.5396 19.299 11.3541 19.4082 11.1876C19.2311 11.0991 19.0579 11.0124 18.8887 10.9278Z" fill="white"/>
<path opacity="0.944" fill-rule="evenodd" clip-rule="evenodd" d="M18.666 8.77537C18.9241 8.75191 19.1716 8.78902 19.4082 8.88669C19.5909 9.21482 19.764 9.5488 19.9277 9.88865C20.2869 10.0127 20.658 10.0993 21.041 10.1484C21.3251 10.3939 21.4117 10.7031 21.3008 11.0761C21.0127 11.3393 20.7529 11.6238 20.5215 11.9297C20.9517 13.5709 20.4322 13.9544 18.9629 13.0801C17.4936 13.9544 16.9741 13.5709 17.4043 11.9297C17.1729 11.6238 16.9131 11.3393 16.625 11.0761C16.5141 10.7031 16.6007 10.3939 16.8848 10.1484C17.2698 10.1092 17.6409 10.0225 17.998 9.88865C18.1677 9.47325 18.3904 9.10215 18.666 8.77537ZM18.8887 10.9277C18.796 11.0491 18.6723 11.1357 18.5176 11.1875C18.6268 11.3539 18.701 11.5395 18.7402 11.7441C18.8887 11.6452 19.0371 11.6452 19.1855 11.7441C19.2248 11.5395 19.299 11.3539 19.4082 11.1875C19.2311 11.0989 19.0579 11.0123 18.8887 10.9277Z" fill="white"/>
<path fill-rule="evenodd" clip-rule="evenodd" d="M8.86914 10.5566C9.46289 10.5566 10.0566 10.5566 10.6504 10.5566C10.6504 10.9524 10.6504 11.3483 10.6504 11.7441C10.0566 11.7441 9.46289 11.7441 8.86914 11.7441C8.86914 11.3483 8.86914 10.9524 8.86914 10.5566Z" fill="white"/>
<path fill-rule="evenodd" clip-rule="evenodd" d="M27.2754 10.5566C27.8691 10.5566 28.4629 10.5566 29.0566 10.5566C29.0566 10.9524 29.0566 11.3483 29.0566 11.7441C28.4629 11.7441 27.8691 11.7441 27.2754 11.7441C27.2754 11.3483 27.2754 10.9524 27.2754 10.5566Z" fill="white"/>
<path opacity="0.92" fill-rule="evenodd" clip-rule="evenodd" d="M12.209 16.7168C12.2896 16.7257 12.3391 16.7752 12.3574 16.8652C12.4411 17.1847 12.5154 17.5063 12.5801 17.8301C12.5565 17.9152 12.507 17.9771 12.4316 18.0156C10.1562 18.4612 8.0534 19.3147 6.12305 20.5762C5.86134 20.2527 5.61394 19.9187 5.38086 19.5742C6.86029 18.5501 8.46836 17.7832 10.2051 17.2734C10.8851 17.0975 11.553 16.912 12.209 16.7168Z" fill="white"/>
<path opacity="0.916" fill-rule="evenodd" clip-rule="evenodd" d="M26.1621 16.791C28.2883 17.1862 30.2922 17.916 32.1738 18.9805C32.4757 19.1557 32.7478 19.366 32.9902 19.6113C32.7599 19.9492 32.5126 20.2708 32.248 20.5762C30.3403 19.3254 28.2622 18.4719 26.0137 18.0156C25.9722 17.9618 25.9475 17.9 25.9395 17.8301C26.0328 17.4868 26.107 17.1404 26.1621 16.791Z" fill="white"/>
<path opacity="0.995" fill-rule="evenodd" clip-rule="evenodd" d="M0.853521 21.8379C3.42656 21.8255 5.99947 21.8379 8.57227 21.875C8.64025 21.9028 8.70215 21.9399 8.75782 21.9863C8.84347 23.3157 8.88058 24.6517 8.86915 25.9942C10.0814 29.9772 8.69599 31.3626 4.7129 30.1504C3.42644 30.138 2.13998 30.1257 0.853521 30.1133C0.785522 30.0855 0.723671 30.0484 0.667974 30.002C0.545289 27.3859 0.52055 24.7635 0.593755 22.1348C0.644946 21.9975 0.731534 21.8985 0.853521 21.8379ZM1.74415 23.0254C2.13998 23.0254 2.53582 23.0254 2.93165 23.0254C2.89744 23.9729 2.93455 24.913 3.04297 25.8457C3.09867 25.8922 3.16052 25.9293 3.22852 25.957C4.2181 26.0065 5.20769 26.0065 6.19727 25.957C6.26527 25.9293 6.32712 25.8922 6.38282 25.8457C6.49124 24.913 6.52835 23.9729 6.49415 23.0254C6.88998 23.0254 7.28582 23.0254 7.68165 23.0254C7.68165 25.0046 7.68165 26.9837 7.68165 28.9629C5.70248 28.9629 3.72332 28.9629 1.74415 28.9629C1.74415 26.9837 1.74415 25.0046 1.74415 23.0254ZM4.11915 23.0254C4.51498 23.0254 4.91082 23.0254 5.30665 23.0254C5.30665 23.6192 5.30665 24.2129 5.30665 24.8067C4.91082 24.8067 4.51498 24.8067 4.11915 24.8067C4.11915 24.2129 4.11915 23.6192 4.11915 23.0254Z" fill="white"/>
<path opacity="0.995" fill-rule="evenodd" clip-rule="evenodd" d="M29.3535 21.8379C31.9265 21.8255 34.4995 21.8379 37.0723 21.875C37.1402 21.9028 37.2021 21.9399 37.2578 21.9863C37.3435 23.3157 37.3806 24.6517 37.3691 25.9942C38.5813 29.9772 37.196 31.3626 33.2129 30.1504C31.9265 30.138 30.6399 30.1257 29.3535 30.1133C29.2855 30.0855 29.2236 30.0484 29.168 30.002C29.0453 27.3859 29.0206 24.7635 29.0937 22.1348C29.145 21.9975 29.2315 21.8985 29.3535 21.8379ZM30.2441 23.0254C30.6399 23.0254 31.0358 23.0254 31.4316 23.0254C31.3974 23.9729 31.4345 24.913 31.543 25.8457C31.5986 25.8922 31.6605 25.9293 31.7285 25.957C32.7181 26.0065 33.7077 26.0065 34.6973 25.957C34.7652 25.9293 34.8271 25.8922 34.8828 25.8457C34.9912 24.913 35.0283 23.9729 34.9941 23.0254C35.3899 23.0254 35.7858 23.0254 36.1816 23.0254C36.1816 25.0046 36.1816 26.9837 36.1816 28.9629C34.2024 28.9629 32.2233 28.9629 30.2441 28.9629C30.2441 26.9837 30.2441 25.0046 30.2441 23.0254ZM32.6191 23.0254C33.0149 23.0254 33.4108 23.0254 33.8066 23.0254C33.8066 23.6192 33.8066 24.2129 33.8066 24.8067C33.4108 24.8067 33.0149 24.8067 32.6191 24.8067C32.6191 24.2129 32.6191 23.6192 32.6191 23.0254Z" fill="white"/>
<path opacity="0.995" fill-rule="evenodd" clip-rule="evenodd" d="M15.1035 29.5567C17.6765 29.5443 20.2495 29.5567 22.8223 29.5938C22.8902 29.6215 22.9521 29.6586 23.0078 29.7051C23.0935 31.0345 23.1306 32.3704 23.1191 33.7129C24.3313 37.696 22.946 39.0814 18.9629 37.8692C17.6765 37.8568 16.3899 37.8444 15.1035 37.832C15.0355 37.8043 14.9736 37.7672 14.918 37.7207C14.7953 35.1047 14.7706 32.4822 14.8437 29.8535C14.895 29.7162 14.9815 29.6172 15.1035 29.5567ZM15.9941 30.7442C16.3899 30.7442 16.7858 30.7442 17.1816 30.7442C17.1474 31.6916 17.1845 32.6318 17.293 33.5645C17.3486 33.6109 17.4105 33.648 17.4785 33.6758C18.4681 33.7253 19.4577 33.7253 20.4473 33.6758C20.5152 33.648 20.5771 33.6109 20.6328 33.5645C20.7412 32.6318 20.7783 31.6916 20.7441 30.7442C21.1399 30.7442 21.5358 30.7442 21.9316 30.7442C21.9316 32.7233 21.9316 34.7025 21.9316 36.6817C19.9524 36.6817 17.9733 36.6817 15.9941 36.6817C15.9941 34.7025 15.9941 32.7233 15.9941 30.7442ZM18.3691 30.7442C18.7649 30.7442 19.1608 30.7442 19.5566 30.7442C19.5566 31.3379 19.5566 31.9317 19.5566 32.5254C19.1608 32.5254 18.7649 32.5254 18.3691 32.5254C18.3691 31.9317 18.3691 31.3379 18.3691 30.7442Z" fill="white"/>
<path opacity="0.922" fill-rule="evenodd" clip-rule="evenodd" d="M5.60352 30.8184C7.89851 32.2641 10.3972 33.1918 13.0996 33.6016C13.1335 33.6323 13.1583 33.6694 13.1738 33.7129C13.0996 34.0593 13.0254 34.4056 12.9512 34.752C10.6582 34.5122 8.48105 33.8567 6.41992 32.7852C5.88391 32.5054 5.38912 32.1714 4.93555 31.7832C5.17724 31.4724 5.3999 31.1508 5.60352 30.8184Z" fill="white"/>
<path opacity="0.922" fill-rule="evenodd" clip-rule="evenodd" d="M32.1738 30.8184C32.2864 30.8192 32.373 30.8686 32.4336 30.9668C32.6047 31.2491 32.7902 31.5212 32.9902 31.7832C32.5367 32.1714 32.0419 32.5054 31.5059 32.7852C29.4447 33.8567 27.2676 34.5122 24.9746 34.752C24.9004 34.4056 24.8262 34.0593 24.752 33.7129C26.336 33.36 27.8946 32.9023 29.4277 32.3398C30.4171 31.9446 31.3324 31.4375 32.1738 30.8184Z" fill="white"/>
</g>
<defs>
<clipPath id="clip0_30_385">
<rect width="38" height="38" fill="white" transform="translate(0 0.5)"/>
</clipPath>
</defs>
</svg>
