<svg width="50" height="50" viewBox="0 0 50 50" fill="none" xmlns="http://www.w3.org/2000/svg">
<path opacity="0.907" fill-rule="evenodd" clip-rule="evenodd" d="M35.1074 8.05658C39.8983 8.03405 43.5279 10.0523 45.9961 14.1113C48.3195 18.8174 47.9289 23.2771 44.8242 27.4902C41.6316 31.0555 37.6766 32.3901 32.959 31.4941C31.1235 36.2752 27.7706 39.4817 22.9004 41.1132C16.9554 42.7274 11.7146 41.4742 7.17773 37.3535C2.91246 32.8909 1.529 27.6499 3.02734 21.6308C4.43937 17.0285 7.32022 13.6919 11.6699 11.621C16.1914 9.68862 20.6836 9.75373 25.1465 11.8163C25.5615 12.0482 25.9684 12.2923 26.3672 12.5488C28.6341 9.79584 31.5476 8.29844 35.1074 8.05658ZM34.4238 9.32611C39.0789 9.08974 42.6107 10.9452 45.0195 14.8925C46.99 19.0767 46.5994 23.0155 43.8477 26.7089C42.5966 28.1561 41.0829 29.2303 39.3066 29.9316C39.1328 28.0001 39.0352 26.0633 39.0137 24.121C39.03 23.5839 39.0462 23.0468 39.0625 22.5097C39.3996 22.2151 39.5461 21.8408 39.502 21.3867C39.5274 20.9169 39.3647 20.5263 39.0137 20.2148C40.2294 18.776 40.2457 17.3274 39.0625 15.8691C38.0213 14.8034 36.8331 13.9407 35.498 13.2812C35.1061 13.2319 34.7479 13.3295 34.4238 13.5742C33.0898 14.2899 31.9668 15.2501 31.0547 16.455C30.3659 17.8102 30.5124 19.0634 31.4941 20.2148C31.0308 20.7293 30.8843 21.3316 31.0547 22.0214C31.1807 22.2453 31.3435 22.4406 31.543 22.6074C31.4942 24.9498 31.4454 27.2936 31.3965 29.6386C30.6746 29.8524 29.9585 30.0965 29.248 30.371C27.9355 30.7345 26.6009 30.8647 25.2441 30.7617C26.147 29.5257 26.8306 28.1748 27.2949 26.7089C26.9164 25.9853 26.5095 25.2692 26.0742 24.5605C24.0991 19.7547 24.9617 15.5392 28.6621 11.914C30.3487 10.5171 32.2692 9.65445 34.4238 9.32611ZM16.748 11.4746C19.9476 11.2124 22.9098 11.9123 25.6348 13.5742C25.3691 14.0246 25.0925 14.4641 24.8047 14.8925C20.2978 12.5081 15.8219 12.557 11.377 15.039C6.75284 18.1947 4.78344 22.5729 5.46875 28.1738C6.73319 34.0281 10.2977 37.56 16.1621 38.7695C21.7914 39.3804 26.1696 37.3459 29.2969 32.666C29.496 32.2514 29.7076 31.8445 29.9316 31.4453C30.3892 31.3058 30.8286 31.1268 31.25 30.9081C31.466 30.9687 31.6451 31.0827 31.7871 31.2499C29.7557 36.1072 26.175 39.1345 21.0449 40.332C14.18 41.2807 8.95542 38.823 5.37109 32.9589C3.09246 28.3363 3.09246 23.7139 5.37109 19.0917C7.9224 14.7144 11.7147 12.1753 16.748 11.4746ZM28.2715 31.8847C25.5448 36.1613 21.6386 38.0656 16.5527 37.5976C12.6447 36.9073 9.73129 34.8402 7.8125 31.3964C5.75416 26.9079 6.17734 22.6761 9.08203 18.7011C12.7407 14.6246 17.1841 13.4365 22.4121 15.1367C22.9772 15.3705 23.5307 15.6308 24.0723 15.9179C24.2178 15.9907 24.3154 16.1046 24.3652 16.2597C23.2829 20.0352 23.8037 23.5671 25.9277 26.8554C25.7516 27.4522 25.5074 28.0219 25.1953 28.5644C24.6282 29.4881 24.026 30.3833 23.3887 31.2499C23.4442 31.5334 23.6069 31.7288 23.877 31.8359C25.34 32.0127 26.8049 32.0289 28.2715 31.8847ZM35.1074 14.5996C36.2717 15.0932 37.2971 15.8093 38.1836 16.748C39.0308 17.9844 38.8191 19.0098 37.5488 19.8242C36.0189 19.8893 34.489 19.8893 32.959 19.8242C31.8094 19.0794 31.5652 18.1191 32.2266 16.9433C33.0695 16.0103 34.0299 15.229 35.1074 14.5996ZM32.373 21.0449C34.2938 21.0286 36.2145 21.0449 38.1348 21.0937C38.3952 21.289 38.3952 21.4843 38.1348 21.6796C36.1809 21.761 34.2277 21.7447 32.2754 21.6308C32.1436 21.4079 32.1761 21.2125 32.373 21.0449ZM32.7637 22.998C34.4238 22.998 36.084 22.998 37.7441 22.998C37.8231 25.4295 37.9208 27.8546 38.0371 30.2734C36.2054 30.6923 34.3824 30.6435 32.5684 30.1269C32.6396 27.7508 32.7047 25.3745 32.7637 22.998ZM17.9199 25.5371C18.6459 25.5078 18.8412 25.8169 18.5059 26.4648C18.0587 26.6188 17.7657 26.4723 17.627 26.0253C17.7012 25.8437 17.7988 25.6809 17.9199 25.5371ZM35.0098 26.416C35.2019 26.3926 35.381 26.4251 35.5469 26.5136C35.5956 26.8703 35.6118 27.2283 35.5957 27.5878C35.4004 27.5878 35.2051 27.5878 35.0098 27.5878C35.0098 27.1972 35.0098 26.8066 35.0098 26.416Z" fill="white"/>
<path opacity="0.888" fill-rule="evenodd" clip-rule="evenodd" d="M17.627 15.3809C18.0176 15.3809 18.4082 15.3809 18.7988 15.3809C18.7988 15.8691 18.7988 16.3574 18.7988 16.8457C18.4082 16.8457 18.0176 16.8457 17.627 16.8457C17.627 16.3574 17.627 15.8691 17.627 15.3809Z" fill="white"/>
<path opacity="0.917" fill-rule="evenodd" clip-rule="evenodd" d="M18.1152 18.6035C18.4057 18.6177 18.6173 18.7479 18.75 18.9941C18.7825 20.7845 18.8151 22.5749 18.8477 24.3652C19.8103 24.9091 20.1194 25.7066 19.7754 26.7578C20.4753 27.4577 21.1751 28.1575 21.875 28.8574C22.0982 29.7001 21.7891 29.9768 20.9473 29.6875C20.2962 29.0364 19.6452 28.3854 18.9941 27.7344C17.8059 28.0293 16.9758 27.6225 16.5039 26.5137C16.291 25.5071 16.6491 24.7909 17.5781 24.3652C17.6106 22.5423 17.6433 20.7194 17.6758 18.8965C17.8134 18.7714 17.9599 18.6737 18.1152 18.6035ZM17.9199 25.5371C17.7988 25.681 17.7012 25.8438 17.627 26.0254C17.7657 26.4724 18.0587 26.6188 18.5059 26.4648C18.8412 25.817 18.6459 25.5078 17.9199 25.5371Z" fill="white"/>
<path opacity="0.903" fill-rule="evenodd" clip-rule="evenodd" d="M34.9121 25.1465C35.6116 25.0594 36.1813 25.2872 36.6211 25.8301C36.7754 26.7016 36.8079 27.5805 36.7188 28.4668C36.6699 28.6458 36.556 28.7598 36.377 28.8086C35.6282 28.8737 34.8796 28.8737 34.1309 28.8086C33.9796 28.69 33.8657 28.5436 33.7891 28.3691C33.7041 27.5491 33.7366 26.7354 33.8867 25.9277C34.1085 25.4926 34.4503 25.2322 34.9121 25.1465ZM35.0098 26.416C35.0098 26.8066 35.0098 27.1973 35.0098 27.5879C35.2051 27.5879 35.4004 27.5879 35.5957 27.5879C35.6118 27.2283 35.5956 26.8703 35.5469 26.5137C35.381 26.4252 35.2019 26.3927 35.0098 26.416Z" fill="white"/>
<path opacity="0.885" fill-rule="evenodd" clip-rule="evenodd" d="M7.56836 25.4395C8.05664 25.4395 8.54492 25.4395 9.0332 25.4395C9.0332 25.8301 9.0332 26.2207 9.0332 26.6113C8.54492 26.6113 8.05664 26.6113 7.56836 26.6113C7.56836 26.2207 7.56836 25.8301 7.56836 25.4395Z" fill="white"/>
<path opacity="0.888" fill-rule="evenodd" clip-rule="evenodd" d="M17.627 35.2051C18.0176 35.2051 18.4082 35.2051 18.7988 35.2051C18.7988 35.6934 18.7988 36.1816 18.7988 36.6699C18.4082 36.6699 18.0176 36.6699 17.627 36.6699C17.627 36.1816 17.627 35.6934 17.627 35.2051Z" fill="white"/>
</svg>
