<svg width="56" height="50" viewBox="0 0 56 50" fill="none" xmlns="http://www.w3.org/2000/svg">
<path d="M26.2653 0.114815C25.7798 0.201134 20.8811 1.66857 6.90815 5.91981C4.22146 6.73984 1.89083 7.50593 1.72898 7.61383C1.57792 7.73252 1.34054 8.01306 1.21106 8.25043L0.962892 8.67124V28.0608V47.4611L0.596034 47.6122C-0.0405734 47.8819 -0.191633 48.4754 0.261545 48.9178L0.520504 49.1875H27.6141H54.7076L54.9666 48.9178C55.4198 48.4754 55.2687 47.8819 54.6321 47.6122L54.2652 47.4611V28.0824C54.2652 9.29706 54.2544 8.70361 54.0602 8.31517C53.8121 7.82963 53.5639 7.59225 53.0783 7.38724C52.3554 7.09591 42.6445 4.19342 42.3639 4.19342C42.0402 4.19342 41.641 4.6358 41.641 5.00266C41.641 5.56374 41.8244 5.63927 47.036 7.2146C49.7982 8.04543 52.1828 8.77914 52.3554 8.84388L52.6467 8.96257V12.4046C52.6467 14.3036 52.6144 15.8466 52.5712 15.8466C52.4957 15.8466 40.8425 13.1491 32.0919 11.099L28.5312 10.2682L28.4988 5.98455C28.4773 1.84121 28.4773 1.71173 28.6823 1.71173C28.7902 1.71173 31.0453 2.36992 33.6888 3.16837C36.3323 3.96683 38.609 4.62501 38.7601 4.62501C39.0838 4.62501 39.483 4.17183 39.483 3.82656C39.483 3.38417 39.1809 3.12521 38.3716 2.88783C37.94 2.75835 35.8468 2.12175 33.7104 1.47435C31.574 0.82695 29.4699 0.222713 29.0383 0.136395C28.1536 -0.0362434 27.0854 -0.0470352 26.2653 0.114815ZM26.7293 5.99533L26.6969 10.2789L14.774 13.0628C8.21374 14.5841 2.78639 15.8358 2.72165 15.8466C2.61375 15.8466 2.58138 15.0913 2.58138 12.4046V8.96257L2.8835 8.85467C3.04535 8.78993 4.29699 8.40149 5.65652 7.98069C12.7887 5.8227 23.7297 2.51018 24.9166 2.14333C25.6611 1.91674 26.3732 1.72252 26.5135 1.72252L26.7509 1.71173L26.7293 5.99533ZM26.7509 13.4404V14.9294L14.6661 17.7456L2.58138 20.551V19.062C2.58138 17.9614 2.61375 17.5514 2.72165 17.519C2.78639 17.4974 5.08465 16.9687 7.81451 16.3321C15.9717 14.4439 19.9424 13.5159 23.2981 12.7283C25.0461 12.3182 26.5459 11.973 26.6214 11.973C26.7185 11.9622 26.7509 12.329 26.7509 13.4404ZM40.8857 14.8107L52.5928 17.5406L52.6252 19.0512L52.6575 20.5726L51.6001 20.3136C49.2803 19.7417 28.7578 14.9834 28.6283 14.9834C28.5096 14.9834 28.4773 14.6705 28.4773 13.462V11.9406L28.8333 12.0053C29.0168 12.0485 34.4441 13.3109 40.8857 14.8107ZM26.7509 17.1414C26.7509 17.7672 27.0961 17.6269 23.7405 18.393C21.7012 18.857 21.3991 18.9541 21.1293 19.2238L20.8164 19.5367V21.781C20.8164 24.0253 20.8164 24.0253 21.0861 24.349C21.2372 24.5325 21.4962 24.7051 21.6688 24.7483C21.863 24.7914 22.8125 24.6188 24.3123 24.2627C25.5963 23.9714 26.6753 23.7232 26.6969 23.7232C26.7293 23.7232 26.7509 29.0858 26.7509 35.6461V47.569H20.8703H14.9898V42.174C14.9898 38.4083 14.9575 36.7143 14.8711 36.5201C14.623 35.9698 13.7598 35.9267 13.49 36.4446C13.4145 36.5848 13.3713 38.4731 13.3713 42.1201V47.569L10.3825 47.5474L7.38291 47.5151L7.35054 35.7648C7.33975 29.2908 7.36133 23.9714 7.41528 23.9174C7.5016 23.8311 12.9505 22.5363 13.2311 22.5363C13.3498 22.5363 13.3713 23.4858 13.3713 27.9637C13.3713 33.2831 13.3713 33.4018 13.5871 33.6284C13.9108 33.9737 14.4719 33.9521 14.774 33.5744C14.9898 33.2939 14.9898 33.24 14.9682 27.2515L14.9359 21.22L14.6338 20.961C14.4719 20.8207 14.2129 20.702 14.0727 20.702C13.9324 20.702 12.1197 21.0905 10.0588 21.576C6.88657 22.3097 6.26076 22.4824 6.03417 22.709L5.76442 22.9679L5.73205 35.2685L5.71047 47.569H4.14593H2.58138V38.4623C2.58138 29.8735 2.59217 29.3448 2.7756 29.3016C2.87271 29.2693 3.22878 29.1829 3.55248 29.1182C4.2862 28.9456 4.69621 28.7513 4.84727 28.4816C4.91201 28.3521 4.95517 27.3594 4.95517 26.0431C4.95517 23.6045 4.87964 23.2485 4.35094 23.119C4.0704 23.0435 3.28273 23.119 2.82955 23.2485C2.59217 23.3132 2.58138 23.2808 2.58138 22.7629C2.58138 22.2882 2.61375 22.2126 2.81876 22.1587C3.06693 22.1047 12.9829 19.7957 18.6045 18.4901C20.2661 18.1017 22.7154 17.519 24.0534 17.2061C25.3913 16.8824 26.5459 16.6234 26.6214 16.6126C26.7077 16.6019 26.7509 16.7745 26.7509 17.1414ZM35.2965 18.1664C38.9867 19.0296 44.3277 20.2704 47.1439 20.9286C49.96 21.5868 52.3554 22.1479 52.4633 22.1695C52.6036 22.2126 52.6467 22.3421 52.6467 22.7629C52.6467 23.0542 52.6252 23.2916 52.5928 23.2916C52.5604 23.2916 50.3701 22.7845 47.7049 22.1695C43.13 21.0905 38.3393 19.9791 32.0919 18.5333C30.5489 18.1664 29.1031 17.8319 28.8873 17.778C28.4773 17.6701 28.4773 17.6701 28.4773 17.1414C28.4773 16.8392 28.4988 16.6019 28.5204 16.6019C28.542 16.6019 31.5956 17.3032 35.2965 18.1664ZM26.7509 20.7344V22.0508L25.6503 22.2989C25.0353 22.4392 24.0642 22.6658 23.4815 22.7953L22.4241 23.0542L22.4565 21.6947L22.4888 20.346L24.3771 19.8928C25.4129 19.6338 26.3732 19.4288 26.5135 19.418C26.7509 19.4072 26.7509 19.4288 26.7509 20.7344ZM40.7239 22.191L52.5928 24.9641L52.6252 26.2912C52.6467 27.2084 52.6144 27.6076 52.5281 27.6076C52.4309 27.6076 44.3924 25.7517 38.7277 24.4246C34.757 23.4966 33.3219 23.1621 30.9913 22.6226L28.4773 22.0508V20.7236C28.4773 19.5367 28.4988 19.4072 28.6715 19.418C28.7686 19.418 34.1959 20.6697 40.7239 22.191ZM40.4325 26.4747C46.9389 27.996 52.3554 29.2585 52.4633 29.2908C52.636 29.3448 52.6467 29.8735 52.6467 38.4623V47.569H40.562H28.4773V35.6461C28.4773 29.0858 28.4988 23.7232 28.5312 23.7232C28.5636 23.7232 33.9154 24.9641 40.4325 26.4747ZM3.33668 26.1402C3.33668 27.5537 3.3151 27.6076 2.78639 27.6076C2.58138 27.6076 2.58138 27.5321 2.60296 26.2912C2.63533 24.9856 2.63533 24.9749 2.90508 24.8993C3.05614 24.8562 3.2072 24.8238 3.26115 24.813C3.30431 24.8022 3.33668 25.4065 3.33668 26.1402Z" fill="white"/>
<path d="M17.4931 19.828C15.7128 20.2704 15.8099 20.1085 15.7667 22.8923C15.7451 25.0179 15.7559 25.2014 15.9501 25.5251C16.2738 26.0322 16.5652 26.0646 18.0865 25.7193C20.0287 25.2769 19.9532 25.4172 19.9532 22.4823C19.9532 20.2488 19.9424 20.1625 19.7158 19.8927C19.3598 19.4935 18.8958 19.4827 17.4931 19.828ZM18.3347 22.6873V24.0145L18.0002 24.09C17.3312 24.2195 17.3528 24.2734 17.3852 22.8384C17.4176 21.5328 17.4176 21.522 17.6873 21.4465C18.3563 21.263 18.3347 21.2307 18.3347 22.6873Z" fill="white"/>
</svg>
