<svg width="52" height="52" viewBox="0 0 52 52" fill="none" xmlns="http://www.w3.org/2000/svg">
<g clip-path="url(#clip0_28_152)">
<path opacity="0.977" fill-rule="evenodd" clip-rule="evenodd" d="M2.69141 -0.0507812C3.26693 -0.0507812 3.84244 -0.0507812 4.41797 -0.0507812C6.62734 0.744588 7.49062 2.30188 7.00781 4.62109C6.79366 5.29051 6.43819 5.86603 5.94141 6.34766C5.36148 6.61942 4.78597 6.89024 4.21484 7.16016C2.0876 7.31664 0.665719 6.40258 -0.0507812 4.41797C-0.0507812 3.84244 -0.0507812 3.26693 -0.0507812 2.69141C0.355469 1.26953 1.26953 0.355469 2.69141 -0.0507812Z" fill="white"/>
<path opacity="0.976" fill-rule="evenodd" clip-rule="evenodd" d="M24.2227 -0.0507812C24.7982 -0.0507812 25.3737 -0.0507812 25.9492 -0.0507812C27.7889 0.612065 28.703 1.93238 28.6914 3.91016C28.4888 4.48407 28.2857 5.05959 28.082 5.63672C26.7372 7.20828 25.1122 7.56375 23.207 6.70312C21.5313 5.50173 21.0403 3.92751 21.7344 1.98047C22.2703 0.927673 23.0997 0.250589 24.2227 -0.0507812Z" fill="white"/>
<path opacity="0.975" fill-rule="evenodd" clip-rule="evenodd" d="M40.6758 -0.0507812C41.6237 -0.0507812 42.5716 -0.0507812 43.5195 -0.0507812C48.1914 0.897135 51.0013 3.70703 51.9492 8.37891C51.9492 9.32682 51.9492 10.2748 51.9492 11.2227C51.524 13.733 50.339 15.798 48.3945 17.418C48.2933 16.7422 48.0901 16.099 47.7852 15.4883C49.6497 13.5336 50.4115 11.1977 50.0703 8.48047C49.2268 4.65778 46.874 2.44032 43.0117 1.82812C39.1456 1.58568 36.3527 3.19375 34.6328 6.65234C33.4867 9.93352 34.0453 12.8788 36.3086 15.4883C36.0603 16.1091 35.891 16.7523 35.8008 17.418C35.3684 17.1386 34.9791 16.8001 34.6328 16.4023C34.1476 15.8332 33.7245 15.2238 33.3633 14.5742C33.1503 13.9802 32.9133 13.4047 32.6523 12.8477C32.0731 11.0076 32.0055 9.14569 32.4492 7.26172C32.7641 6.69083 33.001 6.08145 33.1602 5.43359C34.7773 2.39538 37.2825 0.567257 40.6758 -0.0507812Z" fill="white"/>
<path opacity="0.969" fill-rule="evenodd" clip-rule="evenodd" d="M28.6914 3.91016C30.181 4.41797 31.6705 4.92578 33.1602 5.43359C33.001 6.08145 32.7641 6.69083 32.4492 7.26172C30.9773 6.75984 29.5216 6.21817 28.082 5.63672C28.2857 5.05959 28.4888 4.48407 28.6914 3.91016Z" fill="white"/>
<path opacity="0.971" fill-rule="evenodd" clip-rule="evenodd" d="M5.94141 6.34766C7.03001 8.56419 8.0795 10.7985 9.08984 13.0508C8.53361 13.3456 7.95808 13.6165 7.36328 13.8633C6.31356 11.6284 5.26408 9.39407 4.21484 7.16016C4.78597 6.89024 5.36148 6.61942 5.94141 6.34766Z" fill="white"/>
<path opacity="0.974" fill-rule="evenodd" clip-rule="evenodd" d="M21.1758 17.6212C21.4224 18.2155 21.6931 18.7911 21.9883 19.3477C22.9725 22.9599 22.2616 26.1761 19.8555 28.9962C19.519 29.2986 19.1804 29.6033 18.8398 29.9102C18.7025 29.2273 18.4656 28.584 18.1289 27.9805C18.354 27.9091 18.5401 27.7738 18.6875 27.5743C21.0726 24.2918 21.1742 20.9402 18.9922 17.5196C16.6327 14.7329 13.6704 13.7681 10.1055 14.6251C6.13371 16.1961 4.25481 19.1245 4.46875 23.4102C4.74997 25.1914 5.51169 26.7149 6.7539 27.9805C6.4814 28.6322 6.31214 29.3093 6.24609 30.0118C3.53264 27.7497 2.33082 24.8383 2.64062 21.2774C3.08562 18.0759 4.65984 15.6045 7.36328 13.8633C7.95808 13.6166 8.53361 13.3457 9.08984 13.0508C13.7453 11.6538 17.5878 12.8387 20.6172 16.6055C20.8317 16.9333 21.0179 17.2718 21.1758 17.6212Z" fill="white"/>
<path opacity="0.992" fill-rule="evenodd" clip-rule="evenodd" d="M47.7852 15.4882C48.0901 16.0989 48.2933 16.7421 48.3945 17.4179C46.5876 18.9285 44.4886 19.7072 42.0977 19.7538C41.2443 19.699 40.3979 19.5974 39.5586 19.4491C37.9738 24.0342 36.3488 28.6045 34.6836 33.1601C34.0926 32.9411 33.5171 32.704 32.957 32.4491C34.5209 27.8931 36.1459 23.3566 37.832 18.8397C37.2565 18.4843 36.681 18.1288 36.1055 17.7733C35.9826 17.6678 35.881 17.5493 35.8008 17.4179C35.891 16.7522 36.0603 16.109 36.3086 15.4882C37.4701 13.4678 39.2304 12.4691 41.5898 12.4921C40.1244 12.2422 39.1596 11.4128 38.6953 10.0038C38.1958 7.7021 39.0591 6.16174 41.2852 5.38271C43.4489 5.13505 44.8877 6.03218 45.6016 8.07412C45.8577 10.4579 44.8251 11.9305 42.5039 12.4921C44.8904 12.4151 46.6508 13.4139 47.7852 15.4882Z" fill="white"/>
<path opacity="0.969" fill-rule="evenodd" clip-rule="evenodd" d="M32.6523 12.8477C32.9133 13.4047 33.1503 13.9802 33.3633 14.5742C29.5716 16.1654 25.7799 17.7565 21.9883 19.3477C21.6931 18.791 21.4224 18.2154 21.1758 17.6211C24.9908 16.0013 28.8162 14.4101 32.6523 12.8477Z" fill="white"/>
<path opacity="0.996" fill-rule="evenodd" clip-rule="evenodd" d="M18.1289 27.9804C18.4656 28.5839 18.7025 29.2272 18.8398 29.9101C19.1804 29.6032 19.519 29.2985 19.8555 28.996C21.3782 30.7219 22.9356 32.4145 24.5273 34.0741C24.0773 34.586 23.5695 35.0261 23.0039 35.3945C21.7893 33.9933 20.5537 32.6053 19.2969 31.2304C19.0212 30.9205 18.7165 30.6497 18.3828 30.4179C16.2241 31.8928 13.8374 32.4852 11.2227 32.1952C10.2879 32.0374 9.37376 31.8343 8.48047 31.5859C7.66056 33.0058 6.88192 34.4446 6.14453 35.9023C5.61453 35.5187 5.039 35.214 4.41797 34.9882C5.21634 33.5102 6.02884 32.0375 6.85547 30.5702C6.62561 30.406 6.42249 30.2198 6.24609 30.0116C6.31214 29.3091 6.4814 28.632 6.75391 27.9804C7.83674 26.134 9.46174 25.1353 11.6289 24.9843C10.7281 24.692 10.0003 24.1673 9.44531 23.4101C8.3372 20.9042 9.03121 19.093 11.5273 17.9765C13.8756 17.6514 15.382 18.6162 16.0469 20.871C16.1857 22.9826 15.2548 24.3537 13.2539 24.9843C15.4524 25.0833 17.0774 26.0821 18.1289 27.9804Z" fill="white"/>
<path opacity="0.977" fill-rule="evenodd" clip-rule="evenodd" d="M51.9492 29.6054C51.9492 30.181 51.9492 30.7564 51.9492 31.332C51.1275 33.4869 49.5702 34.3502 47.2773 33.9218C46.7654 33.7297 46.2914 33.4758 45.8555 33.1601C45.5264 32.6719 45.2217 32.1641 44.9414 31.6367C44.3689 29.3453 45.1814 27.7711 47.3789 26.914C48.8715 26.5878 50.141 26.9772 51.1875 28.082C51.5537 28.5436 51.8076 29.0514 51.9492 29.6054Z" fill="white"/>
<path opacity="0.971" fill-rule="evenodd" clip-rule="evenodd" d="M44.9414 31.6367C45.2217 32.1641 45.5264 32.6719 45.8555 33.1602C43.6724 34.6411 41.4718 36.0968 39.2539 37.5273C38.8648 37.0206 38.5263 36.479 38.2383 35.9023C40.3645 34.4998 42.4973 33.0948 44.6367 31.6875C44.733 31.6384 44.8346 31.6216 44.9414 31.6367Z" fill="white"/>
<path opacity="0.976" fill-rule="evenodd" clip-rule="evenodd" d="M32.957 32.4493C33.5172 32.7042 34.0926 32.9412 34.6836 33.1602C36.0744 33.806 37.2592 34.7201 38.2383 35.9024C38.5263 36.4791 38.8648 37.0207 39.2539 37.5274C41.0797 41.5946 40.5888 45.3524 37.7813 48.8008C37.4349 49.1985 37.0456 49.537 36.6133 49.8164C36.5946 49.1135 36.4591 48.4364 36.207 47.7852C38.4788 45.1772 39.0374 42.2319 37.8828 38.9493C35.9192 35.0983 32.7877 33.5241 28.4883 34.2266C25.1693 35.2095 23.155 37.3931 22.4453 40.7774C22.132 43.3512 22.8091 45.6195 24.4766 47.5821C24.5447 47.6584 24.6293 47.6924 24.7305 47.6836C24.4019 48.3202 24.1988 48.9972 24.1211 49.7149C22.6792 48.5582 21.6636 47.1025 21.0742 45.3477C20.95 44.6808 20.7807 44.0376 20.5664 43.418C20.2777 40.3923 21.0902 37.7177 23.0039 35.3946C23.5695 35.0262 24.0773 34.5861 24.5273 34.0743C27.0927 32.3205 29.9026 31.7788 32.957 32.4493Z" fill="white"/>
<path opacity="0.977" fill-rule="evenodd" clip-rule="evenodd" d="M4.41797 34.9882C5.039 35.214 5.61453 35.5187 6.14453 35.9023C7.35289 37.4092 7.47138 39.0003 6.5 40.6757C5.29623 42.0559 3.82357 42.4451 2.08203 41.8437C1.00242 41.3241 0.291479 40.4946 -0.0507812 39.3554C-0.0507812 38.7799 -0.0507812 38.2044 -0.0507812 37.6288C0.704691 35.5212 2.19428 34.641 4.41797 34.9882Z" fill="white"/>
<path opacity="0.976" fill-rule="evenodd" clip-rule="evenodd" d="M14.8789 44.8398C15.0151 45.4521 15.1505 46.0614 15.2852 46.668C14.9331 49.0682 13.5452 50.2362 11.1211 50.1719C9.16614 49.7684 8.11666 48.5666 7.97266 46.5664C8.13057 44.3275 9.33239 43.1087 11.5781 42.9102C13.0338 42.9687 14.134 43.6119 14.8789 44.8398Z" fill="white"/>
<path opacity="0.967" fill-rule="evenodd" clip-rule="evenodd" d="M20.5664 43.418C20.7807 44.0376 20.95 44.6808 21.0742 45.3477C19.1355 45.7489 17.2058 46.189 15.2852 46.668C15.1505 46.0614 15.0151 45.4521 14.8789 44.8398C16.7748 44.3659 18.6705 43.892 20.5664 43.418Z" fill="white"/>
<path fill-rule="evenodd" clip-rule="evenodd" d="M36.207 47.785C36.4591 48.4363 36.5946 49.1134 36.6133 49.8163C35.2109 50.9405 33.6198 51.6514 31.8398 51.9491C30.892 51.9491 29.944 51.9491 28.9961 51.9491C27.1678 51.6442 25.5428 50.8995 24.1211 49.7147C24.1988 48.9971 24.4019 48.3201 24.7305 47.6835C25.7908 45.8655 27.382 44.8668 29.5039 44.6874C28.5709 44.3977 27.843 43.8391 27.3203 43.0116C26.4412 41.1849 26.7628 39.6107 28.2852 38.289C30.3412 37.1238 32.0847 37.4793 33.5156 39.3554C34.5484 41.9103 33.7867 43.6876 31.2305 44.6874C33.4566 44.8505 35.1155 45.8831 36.207 47.785Z" fill="white"/>
</g>
<defs>
<clipPath id="clip0_28_152">
<rect width="52" height="52" fill="white"/>
</clipPath>
</defs>
</svg>
