<svg width="212" height="175" viewBox="0 0 212 175" fill="none" xmlns="http://www.w3.org/2000/svg">
<path d="M26.676 144.444H10.773V162H3.99V123.411H10.773V139.485H26.676V123.411H33.459V162H26.676V144.444ZM63.6913 148.263C63.6913 150.543 63.8243 152.462 64.0903 154.02C64.3943 155.54 64.7173 156.775 65.0593 157.725C65.4773 158.865 65.9333 159.758 66.4273 160.404L61.3543 162.456C60.8603 161.962 60.4043 161.373 59.9863 160.689C59.6443 160.081 59.3213 159.359 59.0173 158.523C58.7133 157.649 58.5233 156.623 58.4473 155.445C57.8013 157.725 56.7563 159.454 55.3123 160.632C53.9063 161.772 51.9873 162.342 49.5553 162.342C47.7693 162.342 46.2113 162.019 44.8813 161.373C43.5893 160.689 42.5063 159.739 41.6323 158.523C40.7583 157.269 40.1123 155.768 39.6943 154.02C39.2763 152.272 39.0673 150.334 39.0673 148.206C39.0673 146.04 39.3903 144.045 40.0363 142.221C40.7203 140.359 41.6513 138.763 42.8293 137.433C44.0453 136.103 45.4893 135.058 47.1613 134.298C48.8333 133.538 50.6763 133.158 52.6903 133.158C53.8303 133.158 55.0083 133.253 56.2243 133.443C57.4783 133.595 58.6373 133.766 59.7013 133.956C60.7653 134.146 61.6583 134.336 62.3803 134.526C63.1403 134.678 63.5773 134.773 63.6913 134.811V148.263ZM50.6383 157.782C51.5883 157.782 52.4623 157.459 53.2603 156.813C54.0583 156.167 54.7423 155.331 55.3123 154.305C55.9203 153.241 56.3763 152.044 56.6803 150.714C57.0223 149.346 57.1933 147.959 57.1933 146.553V138.345C56.8133 138.231 56.2433 138.098 55.4833 137.946C54.7233 137.794 54.0393 137.718 53.4313 137.718C51.9873 137.718 50.7903 137.965 49.8403 138.459C48.9283 138.953 48.1873 139.637 47.6173 140.511C47.0473 141.385 46.6483 142.43 46.4203 143.646C46.1923 144.862 46.0783 146.192 46.0783 147.636C46.0783 148.966 46.1163 150.239 46.1923 151.455C46.2683 152.671 46.4583 153.754 46.7623 154.704C47.1043 155.654 47.5793 156.414 48.1873 156.984C48.7953 157.516 49.6123 157.782 50.6383 157.782ZM71.3368 133.614H77.8348V160.632C77.8348 162.912 77.5308 164.812 76.9228 166.332C76.3148 167.852 75.5358 169.125 74.5858 170.151C73.6738 171.215 72.6288 172.089 71.4508 172.773C70.3108 173.495 69.1708 174.141 68.0308 174.711L65.4088 170.379C66.8148 169.657 67.9168 168.878 68.7148 168.042C69.5128 167.244 70.1018 166.427 70.4818 165.591C70.8618 164.793 71.0898 164.014 71.1658 163.254C71.2798 162.494 71.3368 161.829 71.3368 161.259V133.614ZM74.6428 120.96C75.8588 120.96 76.7898 121.321 77.4358 122.043C78.1198 122.765 78.4618 123.696 78.4618 124.836C78.4618 125.976 78.1198 126.926 77.4358 127.686C76.7898 128.446 75.8018 128.826 74.4718 128.826C73.2558 128.826 72.3248 128.465 71.6788 127.743C71.0328 126.983 70.7098 126.071 70.7098 125.007C70.7098 123.829 71.0328 122.86 71.6788 122.1C72.3628 121.34 73.3508 120.96 74.6428 120.96ZM85.2529 133.614H91.7509V160.632C91.7509 162.912 91.4469 164.812 90.8389 166.332C90.2309 167.852 89.4519 169.125 88.5019 170.151C87.5899 171.215 86.5449 172.089 85.3669 172.773C84.2269 173.495 83.0869 174.141 81.9469 174.711L79.3249 170.379C80.7309 169.657 81.8329 168.878 82.6309 168.042C83.4289 167.244 84.0179 166.427 84.3979 165.591C84.7779 164.793 85.0059 164.014 85.0819 163.254C85.1959 162.494 85.2529 161.829 85.2529 161.259V133.614ZM88.5589 120.96C89.7749 120.96 90.7059 121.321 91.3519 122.043C92.0359 122.765 92.3779 123.696 92.3779 124.836C92.3779 125.976 92.0359 126.926 91.3519 127.686C90.7059 128.446 89.7179 128.826 88.3879 128.826C87.1719 128.826 86.2409 128.465 85.5949 127.743C84.9489 126.983 84.6259 126.071 84.6259 125.007C84.6259 123.829 84.9489 122.86 85.5949 122.1C86.2789 121.34 87.2669 120.96 88.5589 120.96ZM113.982 123.411C114.248 123.411 114.856 123.411 115.806 123.411C116.756 123.373 117.82 123.354 118.998 123.354C120.176 123.354 121.354 123.354 122.532 123.354C123.71 123.316 124.679 123.297 125.439 123.297C130.075 123.297 133.495 124.342 135.699 126.432C137.903 128.484 139.005 131.315 139.005 134.925C139.005 136.673 138.701 138.288 138.093 139.77C137.485 141.214 136.573 142.468 135.357 143.532C134.179 144.596 132.697 145.432 130.911 146.04C129.163 146.61 127.111 146.895 124.755 146.895H120.765V162H113.982V123.411ZM120.765 141.822H125.154C127.548 141.822 129.258 141.195 130.284 139.941C131.31 138.687 131.823 137.091 131.823 135.153C131.823 134.279 131.709 133.424 131.481 132.588C131.253 131.752 130.854 131.011 130.284 130.365C129.752 129.681 129.011 129.149 128.061 128.769C127.149 128.351 125.99 128.142 124.584 128.142C123.748 128.142 123.007 128.142 122.361 128.142C121.753 128.142 121.221 128.161 120.765 128.199V141.822ZM150.243 162.228C148.077 162.228 146.481 161.639 145.455 160.461C144.429 159.245 143.916 157.706 143.916 155.844V121.815L150.414 120.618V155.217C150.414 156.091 150.585 156.699 150.927 157.041C151.269 157.383 151.763 157.554 152.409 157.554C152.789 157.554 153.15 157.535 153.492 157.497C153.872 157.459 154.214 157.402 154.518 157.326C154.86 157.25 155.164 157.174 155.43 157.098L156.228 161.202C155.734 161.392 155.183 161.563 154.575 161.715C154.043 161.867 153.416 161.981 152.694 162.057C151.972 162.171 151.155 162.228 150.243 162.228ZM177.661 133.614H184.159V148.263C184.159 150.543 184.292 152.462 184.558 154.02C184.862 155.54 185.185 156.775 185.527 157.725C185.945 158.865 186.401 159.758 186.895 160.404L181.822 162.456C181.366 162.038 180.948 161.506 180.568 160.86C180.264 160.328 179.941 159.682 179.599 158.922C179.295 158.124 179.086 157.193 178.972 156.129C177.946 158.371 176.502 159.967 174.64 160.917C172.778 161.867 170.84 162.342 168.826 162.342C165.824 162.342 163.677 161.468 162.385 159.72C161.131 157.972 160.504 155.578 160.504 152.538V133.614H167.002V152.424C167.002 154.02 167.287 155.274 167.857 156.186C168.427 157.098 169.396 157.554 170.764 157.554C171.6 157.554 172.417 157.326 173.215 156.87C174.051 156.376 174.792 155.692 175.438 154.818C176.122 153.944 176.654 152.899 177.034 151.683C177.452 150.429 177.661 149.042 177.661 147.522V133.614ZM200.451 132.93C201.553 132.93 202.636 133.044 203.7 133.272C204.764 133.5 205.714 133.766 206.55 134.07C207.538 134.412 208.45 134.773 209.286 135.153L207.348 139.599C206.588 139.257 205.828 138.953 205.068 138.687C204.422 138.459 203.7 138.25 202.902 138.06C202.142 137.832 201.382 137.718 200.622 137.718C199.748 137.718 198.988 137.927 198.342 138.345C197.734 138.763 197.43 139.39 197.43 140.226C197.43 142.392 199.007 144.083 202.161 145.299C203.339 145.755 204.403 146.249 205.353 146.781C206.303 147.275 207.101 147.864 207.747 148.548C208.431 149.232 208.944 150.03 209.286 150.942C209.628 151.816 209.799 152.861 209.799 154.077C209.799 155.141 209.571 156.186 209.115 157.212C208.697 158.238 208.051 159.15 207.177 159.948C206.341 160.746 205.296 161.392 204.042 161.886C202.826 162.342 201.439 162.57 199.881 162.57C198.627 162.57 197.392 162.418 196.176 162.114C194.96 161.848 193.858 161.544 192.87 161.202C191.92 160.86 191.16 160.537 190.59 160.233L189.735 159.834L191.844 155.046L192.585 155.445C193.079 155.749 193.706 156.072 194.466 156.414C195.226 156.756 196.043 157.079 196.917 157.383C197.791 157.649 198.589 157.782 199.311 157.782C200.641 157.782 201.629 157.516 202.275 156.984C202.921 156.452 203.244 155.749 203.244 154.875C203.244 153.887 202.883 152.994 202.161 152.196C201.477 151.36 200.432 150.676 199.026 150.144C196.1 149.042 193.991 147.788 192.699 146.382C191.445 144.976 190.818 143.152 190.818 140.91C190.818 139.846 191.065 138.839 191.559 137.889C192.053 136.901 192.718 136.046 193.554 135.324C194.428 134.564 195.454 133.975 196.632 133.557C197.81 133.139 199.083 132.93 200.451 132.93Z" fill="white"/>
<path d="M103.362 0.224747C102.413 0.393547 92.8336 3.26315 65.5091 11.5766C60.2552 13.1802 55.6976 14.6783 55.3811 14.8893C55.0857 15.1214 54.6215 15.67 54.3683 16.1342L53.883 16.9571V54.8738V92.8116L53.1656 93.107C51.9207 93.6345 51.6253 94.795 52.5115 95.6601L53.0179 96.1876H106H158.982L159.489 95.6601C160.375 94.795 160.079 93.6345 158.834 93.107L158.117 92.8116V54.916C158.117 18.1809 158.096 17.0204 157.716 16.2608C157.231 15.3113 156.746 14.8471 155.796 14.4462C154.382 13.8765 135.392 8.20055 134.844 8.20055C134.211 8.20055 133.43 9.06565 133.43 9.78306C133.43 10.8803 133.789 11.028 143.98 14.1086C149.382 15.7333 154.045 17.1681 154.382 17.2947L154.952 17.5268V24.2577C154.952 27.9713 154.889 30.9886 154.804 30.9886C154.657 30.9886 131.869 25.7136 114.757 21.7046L107.794 20.0799L107.73 11.7032C107.688 3.60075 107.688 3.34755 108.089 3.34755C108.3 3.34755 112.71 4.63465 117.879 6.19605C123.049 7.75745 127.501 9.04456 127.796 9.04456C128.429 9.04456 129.21 8.15836 129.21 7.48315C129.21 6.61805 128.619 6.11166 127.037 5.64745C126.193 5.39425 122.099 4.14935 117.922 2.88335C113.744 1.61735 109.629 0.435745 108.785 0.266945C107.055 -0.0706558 104.966 -0.0917511 103.362 0.224747ZM104.27 11.7243L104.206 20.101L80.891 25.5448C68.0622 28.5199 57.4489 30.9675 57.3223 30.9886C57.1113 30.9886 57.048 29.5116 57.048 24.2577V17.5268L57.6388 17.3158C57.9553 17.1892 60.4029 16.4296 63.0615 15.6067C77.0086 11.3867 98.404 4.90895 100.725 4.19155C102.181 3.74845 103.573 3.36865 103.848 3.36865L104.312 3.34755L104.27 11.7243ZM104.312 26.2833V29.1951L80.68 34.7022L57.048 40.1882V37.2764C57.048 35.1242 57.1113 34.3224 57.3223 34.2591C57.4489 34.2169 61.9432 33.183 67.2815 31.9381C83.2331 28.2456 90.9979 26.431 97.56 24.8907C100.978 24.0889 103.911 23.4137 104.059 23.4137C104.249 23.3926 104.312 24.11 104.312 26.2833ZM131.953 28.963L154.847 34.3013L154.91 37.2553L154.973 40.2304L152.905 39.724C148.369 38.6057 108.237 29.3006 107.983 29.3006C107.751 29.3006 107.688 28.6887 107.688 26.3255V23.3504L108.384 23.477C108.743 23.5614 119.356 26.0301 131.953 28.963ZM104.312 33.5206C104.312 34.7444 104.987 34.4701 98.4251 35.9682C94.4372 36.8755 93.8464 37.0654 93.3189 37.5929L92.707 38.2048V42.5936C92.707 46.9824 92.707 46.9824 93.2345 47.6154C93.5299 47.9741 94.0363 48.3117 94.3739 48.3961C94.7537 48.4805 96.6105 48.1429 99.5434 47.4466C102.054 46.8769 104.164 46.3916 104.206 46.3916C104.27 46.3916 104.312 56.8783 104.312 69.7071V93.0226H92.8125H81.313V82.4726C81.313 75.1087 81.2497 71.796 81.0809 71.4162C80.5956 70.3401 78.9076 70.2557 78.3801 71.2685C78.2324 71.5428 78.148 75.2353 78.148 82.3671V93.0226L72.3033 92.9804L66.4375 92.9171L66.3742 69.9392C66.3531 57.2792 66.3953 46.8769 66.5008 46.7714C66.6696 46.6026 77.3251 44.0706 77.8737 44.0706C78.1058 44.0706 78.148 45.9274 78.148 54.6839C78.148 65.0862 78.148 65.3183 78.57 65.7614C79.203 66.4366 80.3002 66.3944 80.891 65.6559C81.313 65.1073 81.313 65.0018 81.2708 53.2913L81.2075 41.4964L80.6167 40.99C80.3002 40.7157 79.7938 40.4836 79.5195 40.4836C79.2452 40.4836 75.7004 41.2432 71.6703 42.1927C65.4669 43.6275 64.2431 43.9651 63.8 44.4082L63.2725 44.9146L63.2092 68.9686L63.167 93.0226H60.1075H57.048V75.2142C57.048 58.4186 57.0691 57.3847 57.4278 57.3003C57.6177 57.237 58.314 57.0682 58.947 56.9416C60.3818 56.604 61.1836 56.2242 61.479 55.6967C61.6056 55.4435 61.69 53.5023 61.69 50.9281C61.69 46.1595 61.5423 45.4632 60.5084 45.21C59.9598 45.0623 58.4195 45.21 57.5333 45.4632C57.0691 45.5898 57.048 45.5265 57.048 44.5137C57.048 43.5853 57.1113 43.4376 57.5122 43.3321C57.9975 43.2266 77.3884 38.7112 88.3815 36.1581C91.6309 35.3985 96.4206 34.2591 99.037 33.6472C101.653 33.0142 103.911 32.5078 104.059 32.4867C104.228 32.4656 104.312 32.8032 104.312 33.5206ZM121.023 35.5251C128.239 37.2131 138.684 39.6396 144.191 40.9267C149.698 42.2138 154.382 43.311 154.593 43.3532C154.868 43.4376 154.952 43.6908 154.952 44.5137C154.952 45.0834 154.91 45.5476 154.847 45.5476C154.783 45.5476 150.5 44.5559 145.288 43.3532C136.342 41.2432 126.973 39.0699 114.757 36.2425C111.739 35.5251 108.912 34.871 108.49 34.7655C107.688 34.5545 107.688 34.5545 107.688 33.5206C107.688 32.9298 107.73 32.4656 107.772 32.4656C107.815 32.4656 113.786 33.8371 121.023 35.5251ZM104.312 40.5469V43.1211L102.16 43.6064C100.957 43.8807 99.0581 44.3238 97.9187 44.577L95.8509 45.0834L95.9142 42.4248L95.9775 39.7873L99.67 38.9011C101.696 38.3947 103.573 37.9938 103.848 37.9727C104.312 37.9516 104.312 37.9938 104.312 40.5469ZM131.637 43.3954L154.847 48.8181L154.91 51.4134C154.952 53.2069 154.889 53.9876 154.72 53.9876C154.53 53.9876 138.811 50.3584 127.733 47.7631C119.968 45.9485 117.162 45.2944 112.604 44.2394L107.688 43.1211V40.5258C107.688 38.2048 107.73 37.9516 108.068 37.9727C108.258 37.9727 118.871 40.4203 131.637 43.3954ZM131.067 51.7721C143.79 54.7472 154.382 57.2159 154.593 57.2792C154.931 57.3847 154.952 58.4186 154.952 75.2142V93.0226H131.32H107.688V69.7071C107.688 56.8783 107.73 46.3916 107.794 46.3916C107.857 46.3916 118.322 48.8181 131.067 51.7721ZM58.525 51.118C58.525 53.8821 58.4828 53.9876 57.4489 53.9876C57.048 53.9876 57.048 53.8399 57.0902 51.4134C57.1535 48.8603 57.1535 48.8392 57.681 48.6915C57.9764 48.6071 58.2718 48.5438 58.3773 48.5227C58.4617 48.5016 58.525 49.6832 58.525 51.118Z" fill="white"/>
<path d="M86.2082 38.7744C82.7267 39.6395 82.9166 39.323 82.8322 44.7668C82.79 48.9235 82.8111 49.2822 83.1909 49.9152C83.8239 50.9069 84.3936 50.9702 87.3687 50.295C91.1667 49.4299 91.019 49.7042 91.019 43.965C91.019 39.5973 90.9979 39.4285 90.5548 38.901C89.8585 38.1203 88.9512 38.0992 86.2082 38.7744ZM87.854 44.3659V46.9612L87.1999 47.1089C85.8917 47.3621 85.9339 47.4676 85.9972 44.6613C86.0605 42.1082 86.0605 42.0871 86.588 41.9394C87.8962 41.5807 87.854 41.5174 87.854 44.3659Z" fill="white"/>
</svg>
