<?xml version="1.0" encoding="UTF-8"?>
<!DOCTYPE svg PUBLIC "-//W3C//DTD SVG 1.1//EN" "http://www.w3.org/Graphics/SVG/1.1/DTD/svg11.dtd">
<svg xmlns="http://www.w3.org/2000/svg" version="1.1" width="500px" height="400px" style="shape-rendering:geometricPrecision; text-rendering:geometricPrecision; image-rendering:optimizeQuality; fill-rule:evenodd; clip-rule:evenodd" xmlns:xlink="http://www.w3.org/1999/xlink">
<g><path style="opacity:0.879" fill="#fefffe" d="M 244.5,5.5 C 249.844,5.33398 255.177,5.50065 260.5,6C 275.962,10.0434 291.129,14.8768 306,20.5C 307,24.3371 305.5,26.3371 301.5,26.5C 287.447,22.705 273.447,18.705 259.5,14.5C 258.833,14.8333 258.167,15.1667 257.5,15.5C 256.689,27.4589 256.689,39.4589 257.5,51.5C 293.115,59.7562 328.781,67.7562 364.5,75.5C 364.819,65.5837 364.486,55.7504 363.5,46C 348.547,41.1784 333.547,36.5117 318.5,32C 313.306,29.3078 313.306,26.4744 318.5,23.5C 335.746,28.0612 352.746,33.3945 369.5,39.5C 370.584,40.6651 371.417,41.9984 372,43.5C 372.167,101.836 372.667,160.17 373.5,218.5C 377.021,220.944 377.355,223.778 374.5,227C 293.167,227.667 211.833,227.667 130.5,227C 127.645,223.778 127.979,220.944 131.5,218.5C 132.333,159.836 132.833,101.17 133,42.5C 133.833,41 135,39.8333 136.5,39C 172.525,27.5007 208.525,16.3341 244.5,5.5 Z M 246.5,13.5 C 247.822,16.7681 248.489,20.4348 248.5,24.5C 247.959,33.4943 247.625,42.4943 247.5,51.5C 211.934,59.9749 176.268,67.9749 140.5,75.5C 140.181,65.5837 140.514,55.7504 141.5,46C 176.643,35.2273 211.643,24.3939 246.5,13.5 Z M 256.5,59.5 C 292.404,68.1424 328.404,76.4757 364.5,84.5C 364.666,88.8461 364.499,93.1794 364,97.5C 329.106,88.8602 294.106,80.5268 259,72.5C 258.055,72.0946 257.388,71.428 257,70.5C 256.501,66.8484 256.335,63.1817 256.5,59.5 Z M 243.5,60.5 C 245.144,60.2865 246.644,60.6198 248,61.5C 248.499,65.1516 248.665,68.8183 248.5,72.5C 212.515,80.263 176.682,88.5964 141,97.5C 140.204,93.2452 140.371,89.0785 141.5,85C 175.621,76.8019 209.621,68.6352 243.5,60.5 Z M 242.5,81.5 C 244.604,81.2011 246.604,81.5344 248.5,82.5C 248.291,83.086 247.957,83.586 247.5,84C 240.266,86.3089 232.932,88.3089 225.5,90C 224.069,90.4652 222.903,91.2986 222,92.5C 221.333,99.8333 221.333,107.167 222,114.5C 223.182,116.357 224.849,117.357 227,117.5C 233.803,115.923 240.636,114.59 247.5,113.5C 248.459,148.482 248.793,183.482 248.5,218.5C 231.167,218.5 213.833,218.5 196.5,218.5C 196.667,202.497 196.5,186.497 196,170.5C 194.419,167.447 192.086,166.78 189,168.5C 188.5,185.163 188.333,201.83 188.5,218.5C 179.833,218.5 171.167,218.5 162.5,218.5C 162.167,183.494 162.5,148.494 163.5,113.5C 171.424,111.186 179.424,109.186 187.5,107.5C 188,124.169 188.667,140.836 189.5,157.5C 192.288,158.96 194.455,158.293 196,155.5C 196.667,137.167 196.667,118.833 196,100.5C 193.159,98.4963 189.993,97.9963 186.5,99C 177.833,101 169.167,103 160.5,105C 157.966,105.516 155.8,106.683 154,108.5C 153.5,145.165 153.333,181.832 153.5,218.5C 149.167,218.5 144.833,218.5 140.5,218.5C 140.333,191.831 140.5,165.165 141,138.5C 144.083,137.361 147.083,136.028 150,134.5C 151.093,130.784 151.593,126.95 151.5,123C 151.688,118.339 151.021,113.839 149.5,109.5C 146.526,108.423 143.526,108.423 140.5,109.5C 140.5,108.167 140.5,106.833 140.5,105.5C 174.755,98.1013 208.755,90.1013 242.5,81.5 Z M 256.5,81.5 C 292.567,89.1832 328.567,97.1832 364.5,105.5C 364.762,106.978 364.429,108.311 363.5,109.5C 328.844,101.336 294.177,93.1694 259.5,85C 257.574,84.5776 256.574,83.4109 256.5,81.5 Z M 244.5,93.5 C 245.822,93.33 246.989,93.6634 248,94.5C 248.498,97.8168 248.665,101.15 248.5,104.5C 242.364,105.201 236.364,106.534 230.5,108.5C 229.167,104.833 229.167,101.167 230.5,97.5C 235.363,96.4546 240.03,95.1213 244.5,93.5 Z M 257.5,93.5 C 292.815,101.662 328.148,109.828 363.5,118C 364.456,121.394 364.789,124.894 364.5,128.5C 328.504,120.501 292.504,112.501 256.5,104.5C 256.244,100.731 256.577,97.0641 257.5,93.5 Z M 207.5,102.5 C 208.5,102.5 209.5,102.5 210.5,102.5C 210.5,106.167 210.5,109.833 210.5,113.5C 209.5,113.5 208.5,113.5 207.5,113.5C 207.5,109.833 207.5,106.167 207.5,102.5 Z M 257.5,113.5 C 292.966,121.033 328.3,129.2 363.5,138C 364.495,164.759 364.828,191.592 364.5,218.5C 328.5,218.5 292.5,218.5 256.5,218.5C 256.207,183.482 256.541,148.482 257.5,113.5 Z M 141.5,117.5 C 142.808,121.019 142.808,124.685 141.5,128.5C 140.242,124.79 140.242,121.123 141.5,117.5 Z"/></g>
<g><path style="opacity:0.872" fill="#fefffe" d="M 207.5,93.5 C 211.351,92.9709 214.851,93.6375 218,95.5C 218.667,102.833 218.667,110.167 218,117.5C 217.626,118.416 217.126,119.25 216.5,120C 211.307,121.968 205.974,122.634 200.5,122C 199.874,121.25 199.374,120.416 199,119.5C 198.333,113.167 198.333,106.833 199,100.5C 199.273,98.8988 199.773,97.3988 200.5,96C 203.004,95.3024 205.337,94.4691 207.5,93.5 Z M 207.5,102.5 C 207.5,106.167 207.5,109.833 207.5,113.5C 208.5,113.5 209.5,113.5 210.5,113.5C 210.5,109.833 210.5,106.167 210.5,102.5C 209.5,102.5 208.5,102.5 207.5,102.5 Z"/></g>
<g><path style="opacity:0.922" fill="#fefffe" d="M 348.5,271.5 C 350.327,298.482 351.16,325.815 351,353.5C 352.028,355.516 353.695,356.516 356,356.5C 358.137,355.923 360.304,355.59 362.5,355.5C 362.723,358.784 363.39,361.951 364.5,365C 356.652,368.835 348.652,369.168 340.5,366C 337.16,363.328 335.326,359.828 335,355.5C 334.5,328.502 334.333,301.502 334.5,274.5C 339.391,273.99 344.058,272.99 348.5,271.5 Z"/></g>
<g><path style="opacity:0.879" fill="#fefffe" d="M 173.5,272.5 C 182.478,271.646 186.644,275.646 186,284.5C 183.792,291.11 179.292,293.276 172.5,291C 168.061,288.024 166.561,283.857 168,278.5C 169.021,275.65 170.854,273.65 173.5,272.5 Z"/></g>
<g><path style="opacity:0.879" fill="#fefffe" d="M 205.5,272.5 C 216.333,272.164 220.166,277.164 217,287.5C 213.604,291.203 209.437,292.369 204.5,291C 202.333,290.167 200.833,288.667 200,286.5C 198.018,280.083 199.851,275.416 205.5,272.5 Z"/></g>
<g><path style="opacity:0.947" fill="#fefffe" d="M 291.5,277.5 C 321.413,278.999 330.913,293.665 320,321.5C 315.334,326.917 309.501,330.417 302.5,332C 295.864,332.952 289.197,333.452 282.5,333.5C 282.5,344.833 282.5,356.167 282.5,367.5C 277.167,367.5 271.833,367.5 266.5,367.5C 266.5,337.833 266.5,308.167 266.5,278.5C 275.017,278.826 283.35,278.493 291.5,277.5 Z M 282.5,290.5 C 287.511,290.334 292.511,290.501 297.5,291C 306.46,295.632 309.293,302.799 306,312.5C 304.01,316.49 300.843,318.99 296.5,320C 291.845,320.499 287.179,320.666 282.5,320.5C 282.5,310.5 282.5,300.5 282.5,290.5 Z"/></g>
<g><path style="opacity:0.942" fill="#fefffe" d="M 15.5,278.5 C 20.8333,278.5 26.1667,278.5 31.5,278.5C 31.5,290.833 31.5,303.167 31.5,315.5C 43.1667,315.5 54.8333,315.5 66.5,315.5C 66.5,303.167 66.5,290.833 66.5,278.5C 72.1667,278.5 77.8333,278.5 83.5,278.5C 83.5,308.167 83.5,337.833 83.5,367.5C 77.8333,367.5 72.1667,367.5 66.5,367.5C 66.5,354.167 66.5,340.833 66.5,327.5C 54.8333,327.5 43.1667,327.5 31.5,327.5C 31.5,340.833 31.5,354.167 31.5,367.5C 26.1667,367.5 20.8333,367.5 15.5,367.5C 15.5,337.833 15.5,308.167 15.5,278.5 Z"/></g>
<g><path style="opacity:0.921" fill="#fefffe" d="M 121.5,300.5 C 131.697,300.433 141.697,301.766 151.5,304.5C 152.333,318.154 152.833,331.821 153,345.5C 153.839,351.682 155.672,357.515 158.5,363C 154.697,366.069 150.364,367.736 145.5,368C 142.845,364.524 140.845,360.69 139.5,356.5C 134.05,366.381 125.717,370.214 114.5,368C 103.776,364.931 97.6089,357.764 96,346.5C 92.5362,330.493 96.7028,316.993 108.5,306C 112.717,303.549 117.05,301.715 121.5,300.5 Z M 122.5,312.5 C 126.902,312.228 131.235,312.561 135.5,313.5C 137.142,324.3 136.642,334.967 134,345.5C 131.328,354.888 125.495,358.055 116.5,355C 113.119,349.148 111.785,342.815 112.5,336C 110.817,325.76 114.151,317.927 122.5,312.5 Z"/></g>
<g><path style="opacity:0.911" fill="#fefffe" d="M 457.5,300.5 C 467.384,299.362 476.717,301.029 485.5,305.5C 484.103,309.294 482.436,312.961 480.5,316.5C 475.853,314.451 471.02,313.117 466,312.5C 458.549,312.432 456.549,315.765 460,322.5C 465.761,326.633 471.927,330.133 478.5,333C 487.307,340.842 488.807,350.009 483,360.5C 479.731,363.883 475.897,366.383 471.5,368C 462.231,369.26 453.231,368.26 444.5,365C 442.445,364.313 440.779,363.146 439.5,361.5C 441.276,357.607 443.276,353.94 445.5,350.5C 451.746,355.294 458.746,357.127 466.5,356C 470.738,353.828 471.572,350.662 469,346.5C 467.5,345 466,343.5 464.5,342C 458.888,339.861 453.554,337.194 448.5,334C 441.983,326.675 440.816,318.508 445,309.5C 448.222,305.143 452.389,302.143 457.5,300.5 Z"/></g>
<g><path style="opacity:0.918" fill="#fefffe" d="M 168.5,301.5 C 173.833,301.5 179.167,301.5 184.5,301.5C 184.667,325.502 184.5,349.502 184,373.5C 180.44,384.728 173.106,392.394 162,396.5C 159.27,393.59 157.103,390.256 155.5,386.5C 161.22,383.277 165.387,378.61 168,372.5C 168.5,348.836 168.667,325.169 168.5,301.5 Z"/></g>
<g><path style="opacity:0.918" fill="#fefffe" d="M 200.5,301.5 C 205.833,301.5 211.167,301.5 216.5,301.5C 216.667,325.169 216.5,348.836 216,372.5C 212.854,384.314 205.521,392.314 194,396.5C 191.22,393.78 189.053,390.614 187.5,387C 189.974,384.199 192.807,381.699 196,379.5C 197.861,377.112 199.194,374.446 200,371.5C 200.5,348.169 200.667,324.836 200.5,301.5 Z"/></g>
<g><path style="opacity:0.931" fill="#fefffe" d="M 372.5,301.5 C 377.833,301.5 383.167,301.5 388.5,301.5C 388.333,317.17 388.5,332.837 389,348.5C 391.356,356.589 396.19,358.422 403.5,354C 407.257,350.579 409.757,346.412 411,341.5C 412.381,328.212 412.881,314.879 412.5,301.5C 417.5,301.5 422.5,301.5 427.5,301.5C 427.176,317.531 427.676,333.531 429,349.5C 429.958,354.545 431.791,359.212 434.5,363.5C 430.666,365.556 426.666,367.223 422.5,368.5C 418.765,365.382 416.265,361.382 415,356.5C 407.981,366.179 398.481,370.013 386.5,368C 377.521,365.242 373.021,359.076 373,349.5C 372.5,333.503 372.333,317.503 372.5,301.5 Z"/></g>
</svg>
